<svg
      viewBox="0 0 92 92"
      className="size-8 md:size-11 bg-red-500 rounded-full"
      fill="none"
      xmlns="http://www.w3.org/2000/svg"
    >
    <circle cx="46" cy="46" r="46" fill="red" />
      <path
        d="M46 0C20.6186 0 0 20.6186 0 46C0 71.3814 20.6186 92 46 92C71.3814 92 92 71.3814 92 46C92 20.6186 71.3814 0 46 0ZM46 4C69.2197 4 88 22.7803 88 46C88 69.2197 69.2197 88 46 88C41.7527 88 37.6554 87.3643 33.793 86.1953C35.5135 83.3188 37.7347 79.2072 38.6172 75.8125C39.1415 73.7998 41.2969 65.5898 41.2969 65.5898C42.6977 68.2641 46.7906 70.5273 51.1484 70.5273C64.1162 70.5273 73.4648 58.6014 73.4648 43.7812C73.4648 29.5731 61.8708 18.9453 46.9531 18.9453C28.3937 18.9453 18.543 31.4016 18.543 44.9648C18.543 51.2726 21.8978 59.1244 27.2695 61.625C28.0832 62.0037 28.5201 61.8397 28.707 61.0508C28.8509 60.4521 29.5765 57.5336 29.9023 56.1758C30.0065 55.7425 29.9561 55.3681 29.6055 54.9414C27.8276 52.7848 26.4023 48.8236 26.4023 45.1289C26.4023 35.6441 33.5829 26.4648 45.8164 26.4648C56.3795 26.4648 63.7773 33.6657 63.7773 43.9609C63.7773 55.5924 57.9041 63.6523 50.2617 63.6523C46.0411 63.6523 42.8807 60.1607 43.8945 55.8789C45.1101 50.7685 47.457 45.2539 47.457 41.5625C47.457 38.2614 45.6855 35.5078 42.0156 35.5078C37.7007 35.5078 34.2344 39.9689 34.2344 45.9492C34.2344 49.7547 35.5234 52.332 35.5234 52.332C35.5234 52.332 31.2611 70.353 30.4805 73.707C29.6982 77.0586 29.9077 81.5727 30.2305 84.9336C14.8423 78.7049 4 63.6387 4 46C4 22.7803 22.7803 4 46 4ZM66 66V126V66ZM126 66V126V66ZM66 96H126H66Z"
        fill="white"
      />
      <path
        d="M51.5 75.5L47.5 69.5L41.558 66L40 71.3778L43 77L45 80L51.5 88.5L56.5 88C56.5 88 55.5 84.5 53.5 80L51.5 75.5Z"
        fill="white"
        stroke="white"
      />
    </svg>